<svg width="20" height="20" viewBox="0 0 20 20" fill="none" xmlns="http://www.w3.org/2000/svg">
<path d="M4.34536 0.115384C4.51934 0.229625 4.63355 0.392915 4.69937 0.584363C4.70301 0.655767 4.70431 0.727291 4.70434 0.798783C4.70446 0.843725 4.70457 0.888668 4.7047 0.934973C4.70463 0.984595 4.70456 1.03422 4.70449 1.08534C4.70456 1.1384 4.70464 1.19146 4.70474 1.24451C4.70492 1.3601 4.70497 1.47569 4.70493 1.59128C4.70487 1.77935 4.70508 1.96742 4.70531 2.15549C4.70563 2.4286 4.70582 2.70172 4.70595 2.97484C4.70616 3.40676 4.70682 3.83868 4.70756 4.2706C4.7078 4.41837 4.70805 4.56614 4.7083 4.71391C4.70836 4.75085 4.70842 4.78778 4.70848 4.82584C4.70918 5.24647 4.70982 5.6671 4.7104 6.08773C4.71045 6.12619 4.71051 6.16465 4.71056 6.20427C4.71142 6.82683 4.71184 7.44939 4.71213 8.07195C4.71244 8.71127 4.71335 9.35058 4.71478 9.98989C4.71564 10.3841 4.71601 10.7783 4.71577 11.1725C4.71565 11.4429 4.71609 11.7134 4.71698 11.9838C4.71747 12.1397 4.71771 12.2956 4.71727 12.4515C4.71687 12.5945 4.7172 12.7375 4.71809 12.8805C4.71837 12.9561 4.7179 13.0318 4.71739 13.1074C4.72188 13.5959 4.83845 14.0452 5.19285 14.4058C5.65027 14.8118 6.19851 14.8045 6.78535 14.803C6.85396 14.8031 6.92258 14.8033 6.99119 14.8035C7.13828 14.8038 7.28537 14.8038 7.43246 14.8038C7.66526 14.8037 7.89805 14.8042 8.13084 14.8049C8.79259 14.8066 9.45434 14.8075 10.1161 14.8078C10.4821 14.8079 10.8481 14.8086 11.214 14.8099C11.4453 14.8106 11.6765 14.8107 11.9077 14.8103C12.0517 14.8102 12.1957 14.8107 12.3397 14.8114C12.4062 14.8116 12.4728 14.8116 12.5393 14.8113C13.2789 14.8078 13.2789 14.8078 13.5536 15.0593C13.5709 15.0845 13.5882 15.1098 13.606 15.1359C13.6241 15.1612 13.6422 15.1866 13.6608 15.2128C13.7614 15.3824 13.7644 15.5481 13.7424 15.7381C13.6723 15.9781 13.5666 16.1303 13.3526 16.2672C13.1735 16.3383 13.0112 16.3537 12.8199 16.3529C12.7905 16.3531 12.7612 16.3532 12.731 16.3534C12.633 16.3539 12.5351 16.3538 12.4372 16.3538C12.3668 16.354 12.2964 16.3542 12.226 16.3545C12.035 16.3552 11.8439 16.3554 11.6529 16.3554C11.5333 16.3555 11.4137 16.3556 11.2941 16.3558C10.876 16.3565 10.458 16.3568 10.04 16.3568C9.65162 16.3567 9.26328 16.3575 8.87492 16.3587C8.54064 16.3597 8.20636 16.3601 7.87207 16.3601C7.67282 16.3601 7.47357 16.3603 7.27432 16.3611C7.08648 16.3618 6.89866 16.3618 6.71082 16.3613C6.64239 16.3612 6.57397 16.3614 6.50555 16.3618C5.94472 16.3654 5.37622 16.3141 4.87478 16.0475C4.84921 16.0346 4.82364 16.0216 4.79729 16.0082C4.59094 15.9006 4.40856 15.7737 4.23163 15.6248C4.19223 15.5959 4.15284 15.5671 4.11225 15.5374C3.55079 15.0394 3.18867 14.3023 3.1331 13.5652C3.13051 13.4662 3.13019 13.3675 3.13085 13.2685C3.13078 13.231 3.13071 13.1935 3.13065 13.1548C3.13052 13.0301 3.13094 12.9055 3.13137 12.7808C3.13139 12.691 3.13138 12.6012 3.13134 12.5114C3.13132 12.2684 3.13177 12.0254 3.13232 11.7823C3.13279 11.5539 3.13283 11.3254 3.13291 11.0969C3.13308 10.6447 3.1336 10.1924 3.13434 9.74009C3.13506 9.30094 3.13561 8.8618 3.13594 8.42265C3.13596 8.39554 3.13598 8.36844 3.136 8.34051C3.1361 8.20453 3.1362 8.06854 3.1363 7.93256C3.13711 6.80581 3.13848 5.67906 3.14022 4.55231C3.10917 4.55265 3.07812 4.55298 3.04613 4.55333C2.75254 4.55637 2.45896 4.55866 2.16535 4.56014C2.01443 4.56093 1.86352 4.562 1.71261 4.56371C1.56678 4.56537 1.42096 4.56626 1.27512 4.56665C1.21968 4.56693 1.16423 4.56747 1.10879 4.56829C0.493372 4.57703 0.493372 4.57703 0.236022 4.34912C0.0540813 4.1559 0.00209997 3.94925 0.0100487 3.69451C0.0414937 3.4643 0.149027 3.31569 0.336191 3.17534C0.509882 3.05672 0.641234 3.03603 0.852459 3.03642C0.903175 3.03642 0.953891 3.03643 1.00614 3.03643C1.06151 3.03662 1.11688 3.03682 1.17225 3.03702C1.22889 3.03709 1.28553 3.03715 1.34217 3.03718C1.49115 3.03733 1.64014 3.0377 1.78912 3.03812C1.94119 3.0385 2.09325 3.03868 2.24531 3.03887C2.54362 3.03927 2.84192 3.03992 3.14022 3.04071C3.1397 2.99556 3.1397 2.99556 3.13917 2.94949C3.13604 2.66485 3.13367 2.38022 3.13214 2.09557C3.13133 1.94925 3.13023 1.80295 3.12846 1.65664C3.12676 1.51525 3.12583 1.37388 3.12543 1.23249C3.12514 1.17874 3.12458 1.12498 3.12374 1.07123C3.11915 0.767352 3.12098 0.539752 3.29614 0.282043C3.37546 0.204249 3.37546 0.204249 3.45449 0.15214C3.49376 0.125324 3.49376 0.125324 3.53382 0.0979649C3.79082 -0.0498991 4.08742 -0.00681096 4.34536 0.115384Z" fill="#CAAA69"/>
<path d="M7.12802 3.03509C7.15726 3.03495 7.1865 3.03481 7.21662 3.03467C7.31491 3.03425 7.41319 3.0341 7.51147 3.03396C7.58184 3.03372 7.65221 3.03347 7.72258 3.03321C7.95414 3.03241 8.18569 3.03202 8.41725 3.03164C8.4971 3.03149 8.57695 3.03133 8.6568 3.03118C9.03236 3.03046 9.40791 3.02992 9.78347 3.0296C10.2159 3.02924 10.6483 3.02824 11.0808 3.02671C11.4156 3.02557 11.7503 3.02501 12.0851 3.02489C12.2848 3.0248 12.4844 3.02447 12.6841 3.02351C12.8724 3.02262 13.0607 3.02247 13.249 3.02286C13.3176 3.02288 13.3862 3.02264 13.4548 3.02212C14.2993 3.01604 15.0609 3.19699 15.7303 3.72087C15.7554 3.73948 15.7806 3.75808 15.8065 3.77726C16.3876 4.22649 16.7763 4.97627 16.8607 5.68595C16.866 5.8123 16.8658 5.9385 16.8654 6.06494C16.8654 6.1213 16.8654 6.1213 16.8655 6.17879C16.8656 6.30436 16.8653 6.42991 16.8651 6.55548C16.8651 6.64561 16.8651 6.73575 16.8652 6.82589C16.8652 7.04503 16.865 7.26418 16.8647 7.48332C16.8645 7.7384 16.8644 7.99348 16.8644 8.24856C16.8643 8.70342 16.864 9.15828 16.8636 9.61314C16.8633 10.0549 16.863 10.4967 16.8629 10.9384C16.8628 10.9793 16.8628 10.9793 16.8628 11.021C16.8628 11.1577 16.8627 11.2944 16.8627 11.4311C16.8623 12.5644 16.8616 13.6978 16.8607 14.8311C16.8912 14.8308 16.9217 14.8305 16.9531 14.8301C17.2415 14.8271 17.5299 14.8248 17.8183 14.8233C17.9666 14.8225 18.1148 14.8214 18.2631 14.8197C18.4064 14.8181 18.5496 14.8172 18.693 14.8168C18.7474 14.8165 18.8018 14.816 18.8563 14.8151C19.207 14.8101 19.5234 14.815 19.7902 15.0592C19.8075 15.0845 19.8248 15.1098 19.8426 15.1358C19.8607 15.1612 19.8788 15.1866 19.8974 15.2127C19.998 15.3823 20.001 15.548 19.979 15.7381C19.9089 15.978 19.8032 16.1302 19.5892 16.2671C19.4207 16.3325 19.2807 16.352 19.0998 16.3513C19.0249 16.3513 19.0249 16.3513 18.9485 16.3513C18.8946 16.3509 18.8407 16.3505 18.7868 16.3501C18.7312 16.35 18.6756 16.3499 18.62 16.3498C18.4743 16.3495 18.3286 16.3487 18.1829 16.3479C18.0339 16.3471 17.885 16.3468 17.7361 16.3464C17.4443 16.3456 17.1525 16.3443 16.8607 16.3427C16.8611 16.3723 16.8614 16.4018 16.8618 16.4323C16.8649 16.7119 16.8673 16.9915 16.8688 17.2711C16.8696 17.4149 16.8707 17.5586 16.8725 17.7023C16.8742 17.8412 16.8751 17.9802 16.8755 18.1191C16.8758 18.1719 16.8763 18.2246 16.8772 18.2774C16.8822 18.6018 16.8818 18.9052 16.6511 19.1609C16.4528 19.3358 16.2367 19.3845 15.9761 19.3777C15.7682 19.3504 15.6019 19.2564 15.4623 19.1061C15.3323 18.9207 15.2918 18.7565 15.2917 18.534C15.2915 18.4891 15.2912 18.4441 15.291 18.3978C15.2913 18.3243 15.2913 18.3243 15.2915 18.2493C15.2914 18.1964 15.2912 18.1435 15.2911 18.0907C15.2907 17.9456 15.2908 17.8005 15.2909 17.6554C15.291 17.4988 15.2907 17.3422 15.2904 17.1856C15.2899 16.9143 15.2897 16.643 15.2897 16.3717C15.2896 15.9789 15.289 15.5861 15.2883 15.1933C15.2871 14.5554 15.2861 13.9175 15.2854 13.2796C15.2854 13.2223 15.2854 13.2223 15.2853 13.1639C15.2849 12.7382 15.2845 12.3124 15.2841 11.8867C15.284 11.7325 15.2839 11.5782 15.2838 11.424C15.2837 11.3669 15.2837 11.3669 15.2837 11.3086C15.2832 10.6733 15.2822 10.0381 15.2809 9.40283C15.2801 9.0112 15.2797 8.61957 15.2798 8.22794C15.2798 7.95939 15.2795 7.69084 15.2788 7.42229C15.2784 7.26748 15.2782 7.11267 15.2785 6.95786C15.2788 6.81589 15.2785 6.67393 15.2778 6.53196C15.2776 6.45679 15.278 6.38162 15.2783 6.30645C15.2749 5.81558 15.1837 5.38332 14.8437 5.00573C14.5472 4.72845 14.1375 4.58409 13.731 4.58508C13.6873 4.58496 13.6873 4.58496 13.6426 4.58483C13.5446 4.58461 13.4466 4.58464 13.3486 4.58468C13.2784 4.58456 13.2082 4.58443 13.138 4.58428C12.9868 4.58398 12.8355 4.58379 12.6842 4.58366C12.4449 4.58344 12.2056 4.58282 11.9663 4.5821C11.8843 4.58186 11.8024 4.58162 11.7205 4.58138C11.6795 4.58126 11.6384 4.58114 11.5962 4.58102C11.039 4.57943 10.4817 4.57819 9.92453 4.57772C9.54878 4.5774 9.17304 4.57655 8.79729 4.5751C8.59846 4.57435 8.39965 4.57388 8.20082 4.57407C8.01368 4.57425 7.82656 4.57373 7.63943 4.57267C7.57086 4.57241 7.50229 4.57241 7.43372 4.57268C6.72665 4.57522 6.72665 4.57522 6.47302 4.34908C6.29033 4.15651 6.23868 3.94901 6.24662 3.69444C6.27807 3.46424 6.3856 3.31563 6.57277 3.17527C6.75597 3.05016 6.90867 3.03503 7.12802 3.03509Z" fill="#CAAA69"/>
<path d="M1.22699 14.5512C1.40097 14.6654 1.51517 14.8287 1.58099 15.0202C1.58519 15.1008 1.58708 15.1817 1.58776 15.2624C1.58802 15.2869 1.58828 15.3113 1.58855 15.3364C1.5891 15.3894 1.58956 15.4423 1.58995 15.4953C1.59059 15.5791 1.5915 15.663 1.59248 15.7469C1.59524 15.9854 1.59758 16.2238 1.59958 16.4623C1.60082 16.6082 1.60243 16.7541 1.60426 16.9001C1.60489 16.9556 1.60537 17.0111 1.6057 17.0667C1.60618 17.1445 1.60712 17.2222 1.60816 17.3C1.60857 17.3442 1.60897 17.3884 1.60938 17.434C1.62008 17.5533 1.6403 17.6355 1.69793 17.741C1.83777 17.8314 1.89975 17.8261 2.06589 17.8263C2.09119 17.8264 2.1165 17.8265 2.14257 17.8267C2.19751 17.8269 2.25244 17.827 2.30738 17.827C2.3946 17.8269 2.4818 17.8274 2.56902 17.8281C2.81699 17.8298 3.06496 17.8308 3.31294 17.831C3.46472 17.8312 3.61649 17.8321 3.76827 17.8335C3.82585 17.8338 3.88344 17.8339 3.94103 17.8337C4.29615 17.8325 4.62835 17.8336 4.90028 18.0825C4.91756 18.1078 4.93484 18.133 4.95265 18.1591C4.97979 18.1972 4.97979 18.1972 5.00747 18.236C5.10803 18.4056 5.11103 18.5713 5.08908 18.7614C5.01899 19.0013 4.91329 19.1535 4.69929 19.2904C4.52554 19.3583 4.37897 19.3757 4.19224 19.3764C4.16597 19.3766 4.13969 19.3768 4.11262 19.377C4.02629 19.3775 3.93997 19.3775 3.85364 19.3774C3.79304 19.3775 3.73245 19.3777 3.67186 19.3779C3.54493 19.3781 3.418 19.3781 3.29107 19.3779C3.12962 19.3777 2.96819 19.3784 2.80674 19.3792C2.68153 19.3798 2.55632 19.3798 2.43111 19.3797C2.37166 19.3797 2.31221 19.3799 2.25276 19.3803C1.602 19.384 1.06006 19.2726 0.57242 18.8251C0.103428 18.3376 -0.00287984 17.7834 0.00113851 17.138C0.00103316 17.0776 0.000881581 17.0172 0.000686487 16.9567C0.000458459 16.8311 0.000784966 16.7054 0.00151916 16.5797C0.00241103 16.4193 0.00189262 16.259 0.000962162 16.0986C0.000396925 15.9742 0.000578847 15.8498 0.000982087 15.7254C0.0010854 15.6663 0.000960919 15.6071 0.000595487 15.548C-0.00255984 14.8947 -0.00255983 14.8947 0.257089 14.64C0.283166 14.6228 0.309244 14.6056 0.336112 14.5879C0.36229 14.5701 0.388468 14.5522 0.41544 14.5338C0.672446 14.3859 0.969039 14.429 1.22699 14.5512Z" fill="#CAAA69"/>
<path d="M15.7543 0.0107642C15.7934 0.0103917 15.7934 0.0103917 15.8333 0.0100117C15.9197 0.00926637 16.0061 0.00882503 16.0925 0.00844848C16.1222 0.00829447 16.1519 0.00814046 16.1825 0.00798177C16.3401 0.00719305 16.4977 0.00665307 16.6554 0.00629881C16.8167 0.00588391 16.978 0.00458785 17.1393 0.00308017C17.2645 0.00208174 17.3897 0.00177479 17.5149 0.00164001C17.5743 0.00145815 17.6336 0.00102521 17.693 0.000315921C18.3646 -0.00720192 18.9327 0.117614 19.4428 0.572493C19.9165 1.06184 19.9974 1.61638 19.9957 2.26168C19.9959 2.32037 19.9961 2.37906 19.9963 2.43775C19.9967 2.55994 19.9966 2.68211 19.9962 2.80429C19.9957 2.96006 19.9965 3.11581 19.9977 3.27158C19.9984 3.39248 19.9984 3.51337 19.9982 3.63427C19.9981 3.69169 19.9984 3.7491 19.9989 3.80651C20.0037 4.4657 20.0037 4.4657 19.7692 4.72496C19.5712 4.90015 19.3547 4.94876 19.0942 4.94196C18.8863 4.91463 18.72 4.82066 18.5804 4.67034C18.4422 4.47325 18.41 4.3023 18.4097 4.06628C18.4096 4.04142 18.4094 4.01657 18.4093 3.99096C18.409 3.93739 18.4089 3.88382 18.409 3.83026C18.409 3.74542 18.4085 3.66061 18.4078 3.57577C18.406 3.33473 18.4051 3.09369 18.4048 2.85264C18.4046 2.70487 18.4037 2.55711 18.4023 2.40934C18.4019 2.35314 18.4018 2.29694 18.402 2.24075C18.4023 2.16223 18.4016 2.08376 18.4007 2.00525C18.4006 1.96062 18.4005 1.91598 18.4004 1.87C18.3766 1.7321 18.3379 1.68862 18.2248 1.60463C18.0947 1.56259 17.9968 1.56188 17.8598 1.56148C17.8085 1.56122 17.7572 1.56095 17.7044 1.56068C17.677 1.56061 17.6496 1.56054 17.6213 1.56047C17.5353 1.5602 17.4492 1.5596 17.3632 1.55891C17.1185 1.55693 16.8738 1.55511 16.6291 1.55453C16.4794 1.55414 16.3296 1.55303 16.1799 1.55145C16.123 1.55099 16.0662 1.55079 16.0093 1.55088C15.3805 1.55158 15.3805 1.55158 15.1257 1.32589C14.9437 1.1327 14.8917 0.925995 14.8997 0.671249C14.9311 0.441041 15.0387 0.292433 15.2258 0.15208C15.403 0.0310827 15.5389 0.0124641 15.7543 0.0107642Z" fill="#CAAA69"/>
</svg>
