<svg width="63" height="58" viewBox="0 0 63 58" fill="none" xmlns="http://www.w3.org/2000/svg">
<path d="M12.1638 38.2783V9C12.1638 5.13401 15.2978 2 19.1638 2H54C57.8659 2 61 5.134 61 9V33.0458M12.1638 38.2783V38.2783C12.1638 39.6268 13.2571 40.7201 14.6056 40.7201H54C57.866 40.7201 61 37.5861 61 33.7201V33.0458M12.1638 38.2783L23.6378 27.0841C25.2053 25.5549 27.7111 25.5703 29.2596 27.1188L31.9739 29.8332C32.3885 30.2477 33.0691 30.2184 33.4464 29.7697L42.629 18.8497C44.2142 16.9646 47.1102 16.9463 48.7191 18.8112L61 33.0458M22.128 10.4169L22.2415 10.3624C23.1592 9.92194 24.2146 9.86566 25.174 10.2061V10.2061C28.4664 11.3743 28.5957 15.9827 25.3739 17.3338L25.2579 17.3825C24.2512 17.8046 23.1121 17.7759 22.128 17.3035V17.3035C19.2391 15.9169 19.2391 11.8036 22.128 10.4169Z" stroke="#010101" stroke-width="3.5"/>
<path d="M7.28023 21.8833L2.84336 38.2012C1.82638 41.9415 4.0424 45.7961 7.78639 46.7993L41.3748 55.7993C45.123 56.8037 48.9729 54.5673 49.9575 50.8139L51.2327 45.9523" stroke="#010101" stroke-width="3.5" stroke-linecap="round"/>
</svg>
