<svg width="329" height="258" viewBox="0 0 329 258" fill="none" xmlns="http://www.w3.org/2000/svg">
<path d="M70.5132 18.708L61.5892 51H59.3352L50.5032 21.928L41.5332 51H39.3712L30.5852 18.708H32.7932L40.5212 48.102L49.3992 18.708H51.6992L60.4852 48.286L68.2592 18.708H70.5132ZM98.1459 36.832C98.1459 37.936 98.1152 38.764 98.0539 39.316H76.4799C76.5412 41.5547 77.0319 43.4407 77.9519 44.974C78.8719 46.5073 80.0832 47.6573 81.5859 48.424C83.0886 49.1907 84.7292 49.574 86.5079 49.574C88.9612 49.574 91.0159 48.976 92.6719 47.78C94.3279 46.5533 95.3706 44.8973 95.7999 42.812H97.9619C97.4712 45.3573 96.2139 47.4273 94.1899 49.022C92.1659 50.586 89.6052 51.368 86.5079 51.368C84.1772 51.368 82.0919 50.8467 80.2519 49.804C78.4119 48.7613 76.9705 47.274 75.9279 45.342C74.8852 43.3793 74.3639 41.0947 74.3639 38.488C74.3639 35.8813 74.8699 33.612 75.8819 31.68C76.9245 29.748 78.3659 28.276 80.2059 27.264C82.0459 26.2213 84.1466 25.7 86.5079 25.7C88.8999 25.7 90.9699 26.2213 92.7179 27.264C94.4966 28.276 95.8459 29.6407 96.7659 31.358C97.6859 33.0447 98.1459 34.8693 98.1459 36.832ZM96.0759 37.614C96.1679 35.406 95.7692 33.5353 94.8799 32.002C94.0212 30.4687 92.8406 29.334 91.3379 28.598C89.8352 27.8313 88.2099 27.448 86.4619 27.448C84.7139 27.448 83.0886 27.8313 81.5859 28.598C80.1139 29.334 78.9025 30.4687 77.9519 32.002C77.0319 33.5353 76.5412 35.406 76.4799 37.614H96.0759ZM106.472 16.96V51H104.402V16.96H106.472ZM112.772 38.488C112.772 35.8813 113.278 33.612 114.29 31.68C115.333 29.748 116.759 28.276 118.568 27.264C120.408 26.2213 122.509 25.7 124.87 25.7C127.998 25.7 130.559 26.482 132.552 28.046C134.576 29.61 135.833 31.7107 136.324 34.348H134.162C133.763 32.2013 132.721 30.5147 131.034 29.288C129.378 28.0613 127.323 27.448 124.87 27.448C123.03 27.448 121.359 27.862 119.856 28.69C118.353 29.4873 117.142 30.7293 116.222 32.416C115.333 34.072 114.888 36.096 114.888 38.488C114.888 40.9107 115.333 42.95 116.222 44.606C117.142 46.262 118.353 47.504 119.856 48.332C121.359 49.16 123.03 49.574 124.87 49.574C127.323 49.574 129.378 48.9607 131.034 47.734C132.721 46.5073 133.763 44.8207 134.162 42.674H136.324C135.833 45.2807 134.576 47.3813 132.552 48.976C130.528 50.5707 127.967 51.368 124.87 51.368C122.509 51.368 120.408 50.8467 118.568 49.804C116.759 48.7613 115.333 47.274 114.29 45.342C113.278 43.3793 112.772 41.0947 112.772 38.488ZM153.624 51.368C151.294 51.368 149.193 50.8467 147.322 49.804C145.452 48.7613 143.98 47.274 142.906 45.342C141.864 43.3793 141.342 41.0947 141.342 38.488C141.342 35.912 141.879 33.658 142.952 31.726C144.026 29.7633 145.498 28.276 147.368 27.264C149.27 26.2213 151.386 25.7 153.716 25.7C156.047 25.7 158.148 26.2213 160.018 27.264C161.889 28.276 163.346 29.748 164.388 31.68C165.462 33.612 165.998 35.8813 165.998 38.488C165.998 41.0947 165.462 43.3793 164.388 45.342C163.315 47.274 161.828 48.7613 159.926 49.804C158.056 50.8467 155.955 51.368 153.624 51.368ZM153.624 49.528C155.434 49.528 157.12 49.1293 158.684 48.332C160.279 47.504 161.552 46.262 162.502 44.606C163.453 42.95 163.928 40.9107 163.928 38.488C163.928 36.096 163.453 34.072 162.502 32.416C161.552 30.76 160.294 29.5333 158.73 28.736C157.166 27.908 155.48 27.494 153.67 27.494C151.861 27.494 150.174 27.908 148.61 28.736C147.077 29.5333 145.835 30.76 144.884 32.416C143.934 34.072 143.458 36.096 143.458 38.488C143.458 40.9107 143.918 42.95 144.838 44.606C145.789 46.262 147.031 47.504 148.564 48.332C150.128 49.1293 151.815 49.528 153.624 49.528ZM201.811 25.516C204.663 25.516 206.994 26.436 208.803 28.276C210.612 30.0853 211.517 32.784 211.517 36.372V51H209.493V36.51C209.493 33.5353 208.772 31.266 207.331 29.702C205.92 28.1073 203.973 27.31 201.489 27.31C198.913 27.31 196.843 28.1993 195.279 29.978C193.715 31.7567 192.933 34.3327 192.933 37.706V51H190.909V36.51C190.909 33.5353 190.188 31.266 188.747 29.702C187.336 28.1073 185.389 27.31 182.905 27.31C180.329 27.31 178.259 28.1993 176.695 29.978C175.131 31.7567 174.349 34.3327 174.349 37.706V51H172.279V26.022H174.349V31.45C175.054 29.4873 176.189 28.0153 177.753 27.034C179.348 26.022 181.172 25.516 183.227 25.516C185.496 25.516 187.444 26.114 189.069 27.31C190.725 28.4753 191.86 30.208 192.473 32.508C193.056 30.208 194.19 28.4753 195.877 27.31C197.564 26.114 199.542 25.516 201.811 25.516ZM241.357 36.832C241.357 37.936 241.326 38.764 241.265 39.316H219.691C219.752 41.5547 220.243 43.4407 221.163 44.974C222.083 46.5073 223.294 47.6573 224.797 48.424C226.299 49.1907 227.94 49.574 229.719 49.574C232.172 49.574 234.227 48.976 235.883 47.78C237.539 46.5533 238.581 44.8973 239.011 42.812H241.173C240.682 45.3573 239.425 47.4273 237.401 49.022C235.377 50.586 232.816 51.368 229.719 51.368C227.388 51.368 225.303 50.8467 223.463 49.804C221.623 48.7613 220.181 47.274 219.139 45.342C218.096 43.3793 217.575 41.0947 217.575 38.488C217.575 35.8813 218.081 33.612 219.093 31.68C220.135 29.748 221.577 28.276 223.417 27.264C225.257 26.2213 227.357 25.7 229.719 25.7C232.111 25.7 234.181 26.2213 235.929 27.264C237.707 28.276 239.057 29.6407 239.977 31.358C240.897 33.0447 241.357 34.8693 241.357 36.832ZM239.287 37.614C239.379 35.406 238.98 33.5353 238.091 32.002C237.232 30.4687 236.051 29.334 234.549 28.598C233.046 27.8313 231.421 27.448 229.673 27.448C227.925 27.448 226.299 27.8313 224.797 28.598C223.325 29.334 222.113 30.4687 221.163 32.002C220.243 33.5353 219.752 35.406 219.691 37.614H239.287Z" fill="black"/>
<path d="M298.058 56.2765L297.518 56.2774L297.507 50.1274L276.927 50.1631L276.926 49.5631L297.506 49.5274L297.495 43.3774L298.035 43.3765L298.058 56.2765ZM276.746 66.6252C276.743 65.1252 277.071 63.7747 277.728 62.5735C278.406 61.3723 279.365 60.4207 280.604 59.7185C281.862 59.0363 283.342 58.6938 285.042 58.6908C286.742 58.6879 288.212 59.0253 289.454 59.7032C290.715 60.401 291.676 61.3493 292.338 62.5482C293.021 63.747 293.363 65.0964 293.365 66.5964C293.368 68.0964 293.03 69.447 292.353 70.6482C291.695 71.8493 290.736 72.791 289.477 73.4732C288.239 74.1553 286.769 74.4979 285.069 74.5008C283.369 74.5038 281.889 74.1663 280.627 73.4885C279.386 72.8107 278.425 71.8723 277.743 70.6735C277.08 69.4747 276.748 68.1252 276.746 66.6252ZM277.286 66.6243C277.288 67.9243 277.57 69.1238 278.132 70.2228C278.714 71.3218 279.585 72.2103 280.746 72.8883C281.908 73.5663 283.348 73.9038 285.068 73.9008C286.788 73.8978 288.228 73.5553 289.386 72.8733C290.545 72.1913 291.404 71.2998 291.962 70.1989C292.54 69.0978 292.828 67.8973 292.825 66.5973C292.823 65.2974 292.531 64.0879 291.949 62.9689C291.387 61.8698 290.516 60.9813 289.335 60.3034C288.173 59.6254 286.743 59.2879 285.043 59.2908C283.343 59.2938 281.903 59.6363 280.725 60.3183C279.566 61.0003 278.697 61.8918 278.119 62.9928C277.561 64.1138 277.283 65.3243 277.286 66.6243Z" fill="black"/>
<path d="M91.4675 112.72C91.4675 117.06 90.1142 120.443 87.4075 122.87C84.7009 125.25 80.6875 126.44 75.3675 126.44H64.8675V148H61.7175V98.86H75.3675C80.7809 98.86 84.8175 100.12 87.4775 102.64C90.1375 105.113 91.4675 108.473 91.4675 112.72ZM75.3675 123.64C84.0009 123.64 88.3175 120 88.3175 112.72C88.3175 109.127 87.2909 106.397 85.2375 104.53C83.1842 102.617 79.8942 101.66 75.3675 101.66H64.8675V123.64H75.3675ZM103.08 117.83C104.014 115.03 105.67 112.907 108.05 111.46C110.43 109.967 113.464 109.22 117.15 109.22V112.51H116.1C112.367 112.51 109.264 113.583 106.79 115.73C104.317 117.83 103.08 121.283 103.08 126.09V148H99.9304V109.99H103.08V117.83ZM158.633 126.44C158.633 128.12 158.586 129.38 158.493 130.22H125.663C125.756 133.627 126.503 136.497 127.903 138.83C129.303 141.163 131.146 142.913 133.433 144.08C135.72 145.247 138.216 145.83 140.923 145.83C144.656 145.83 147.783 144.92 150.303 143.1C152.823 141.233 154.41 138.713 155.063 135.54H158.353C157.606 139.413 155.693 142.563 152.613 144.99C149.533 147.37 145.636 148.56 140.923 148.56C137.376 148.56 134.203 147.767 131.403 146.18C128.603 144.593 126.41 142.33 124.823 139.39C123.236 136.403 122.443 132.927 122.443 128.96C122.443 124.993 123.213 121.54 124.753 118.6C126.34 115.66 128.533 113.42 131.333 111.88C134.133 110.293 137.33 109.5 140.923 109.5C144.563 109.5 147.713 110.293 150.373 111.88C153.08 113.42 155.133 115.497 156.533 118.11C157.933 120.677 158.633 123.453 158.633 126.44ZM155.483 127.63C155.623 124.27 155.016 121.423 153.663 119.09C152.356 116.757 150.56 115.03 148.273 113.91C145.986 112.743 143.513 112.16 140.853 112.16C138.193 112.16 135.72 112.743 133.433 113.91C131.193 115.03 129.35 116.757 127.903 119.09C126.503 121.423 125.756 124.27 125.663 127.63H155.483ZM180.823 148.56C176.576 148.56 173.1 147.627 170.393 145.76C167.733 143.893 166.24 141.233 165.913 137.78H169.133C169.366 140.253 170.486 142.213 172.493 143.66C174.546 145.107 177.323 145.83 180.823 145.83C183.716 145.83 186.003 145.107 187.683 143.66C189.41 142.167 190.273 140.347 190.273 138.2C190.273 136.707 189.806 135.493 188.873 134.56C187.986 133.58 186.866 132.833 185.513 132.32C184.16 131.807 182.316 131.247 179.983 130.64C177.183 129.893 174.92 129.17 173.193 128.47C171.466 127.723 169.996 126.627 168.783 125.18C167.57 123.733 166.963 121.797 166.963 119.37C166.963 117.597 167.5 115.963 168.573 114.47C169.646 112.93 171.14 111.717 173.053 110.83C174.966 109.943 177.136 109.5 179.563 109.5C183.53 109.5 186.726 110.503 189.153 112.51C191.626 114.47 192.956 117.2 193.143 120.7H189.993C189.853 118.18 188.873 116.127 187.053 114.54C185.233 112.953 182.713 112.16 179.493 112.16C176.786 112.16 174.546 112.86 172.773 114.26C171 115.66 170.113 117.363 170.113 119.37C170.113 121.143 170.603 122.59 171.583 123.71C172.61 124.783 173.846 125.623 175.293 126.23C176.786 126.79 178.746 127.397 181.173 128.05C183.833 128.75 185.956 129.45 187.543 130.15C189.176 130.803 190.553 131.783 191.673 133.09C192.793 134.35 193.353 136.053 193.353 138.2C193.353 140.16 192.816 141.933 191.743 143.52C190.67 145.107 189.176 146.343 187.263 147.23C185.35 148.117 183.203 148.56 180.823 148.56ZM207.638 112.72V137.85C207.638 140.65 208.151 142.587 209.178 143.66C210.205 144.687 212.025 145.2 214.638 145.2H218.908V148H214.148C210.835 148 208.385 147.23 206.798 145.69C205.258 144.103 204.488 141.49 204.488 137.85V112.72H198.748V109.99H204.488V100.33H207.638V109.99H218.908V112.72H207.638ZM228.826 101.52C228.079 101.52 227.449 101.287 226.936 100.82C226.422 100.307 226.166 99.63 226.166 98.79C226.166 97.9967 226.422 97.3433 226.936 96.83C227.449 96.3167 228.079 96.06 228.826 96.06C229.572 96.06 230.202 96.3167 230.716 96.83C231.229 97.3433 231.486 97.9967 231.486 98.79C231.486 99.63 231.229 100.307 230.716 100.82C230.202 101.287 229.572 101.52 228.826 101.52ZM230.366 109.99V148H227.216V109.99H230.366ZM258.293 109.5C262.306 109.5 265.713 110.48 268.513 112.44C271.313 114.353 273.273 116.827 274.393 119.86V109.99H277.543V149.19C277.543 152.69 276.773 155.747 275.233 158.36C273.693 161.02 271.616 163.05 269.003 164.45C266.39 165.897 263.473 166.62 260.253 166.62C255.493 166.62 251.55 165.477 248.423 163.19C245.296 160.903 243.243 157.823 242.263 153.95H245.413C246.346 156.983 248.096 159.387 250.663 161.16C253.23 162.98 256.426 163.89 260.253 163.89C262.913 163.89 265.316 163.283 267.463 162.07C269.61 160.903 271.29 159.2 272.503 156.96C273.763 154.767 274.393 152.177 274.393 149.19V138.06C273.273 141.093 271.29 143.613 268.443 145.62C265.643 147.58 262.26 148.56 258.293 148.56C254.746 148.56 251.573 147.767 248.773 146.18C246.02 144.547 243.85 142.26 242.263 139.32C240.723 136.333 239.953 132.88 239.953 128.96C239.953 125.04 240.723 121.61 242.263 118.67C243.85 115.73 246.02 113.467 248.773 111.88C251.573 110.293 254.746 109.5 258.293 109.5ZM274.393 128.96C274.393 125.647 273.693 122.73 272.293 120.21C270.94 117.643 269.073 115.683 266.693 114.33C264.313 112.93 261.653 112.23 258.713 112.23C255.633 112.23 252.926 112.907 250.593 114.26C248.26 115.567 246.44 117.48 245.133 120C243.826 122.52 243.173 125.507 243.173 128.96C243.173 132.413 243.826 135.4 245.133 137.92C246.44 140.44 248.26 142.377 250.593 143.73C252.973 145.083 255.68 145.76 258.713 145.76C261.653 145.76 264.313 145.083 266.693 143.73C269.12 142.33 271.01 140.37 272.363 137.85C273.716 135.283 274.393 132.32 274.393 128.96ZM323.242 126.44C323.242 128.12 323.196 129.38 323.102 130.22H290.272C290.366 133.627 291.112 136.497 292.512 138.83C293.912 141.163 295.756 142.913 298.042 144.08C300.329 145.247 302.826 145.83 305.532 145.83C309.266 145.83 312.392 144.92 314.912 143.1C317.432 141.233 319.019 138.713 319.672 135.54H322.962C322.216 139.413 320.302 142.563 317.222 144.99C314.142 147.37 310.246 148.56 305.532 148.56C301.986 148.56 298.812 147.767 296.012 146.18C293.212 144.593 291.019 142.33 289.432 139.39C287.846 136.403 287.052 132.927 287.052 128.96C287.052 124.993 287.822 121.54 289.362 118.6C290.949 115.66 293.142 113.42 295.942 111.88C298.742 110.293 301.939 109.5 305.532 109.5C309.172 109.5 312.322 110.293 314.982 111.88C317.689 113.42 319.742 115.497 321.142 118.11C322.542 120.677 323.242 123.453 323.242 126.44ZM320.092 127.63C320.232 124.27 319.626 121.423 318.272 119.09C316.966 116.757 315.169 115.03 312.882 113.91C310.596 112.743 308.122 112.16 305.462 112.16C302.802 112.16 300.329 112.743 298.042 113.91C295.802 115.03 293.959 116.757 292.512 119.09C291.112 121.423 290.366 124.27 290.272 127.63H320.092Z" fill="black"/>
<path d="M144.316 174.05C144.133 174.05 143.975 173.992 143.841 173.875C143.725 173.742 143.666 173.575 143.666 173.375C143.666 173.175 143.725 173.017 143.841 172.9C143.975 172.767 144.133 172.7 144.316 172.7C144.5 172.7 144.65 172.767 144.766 172.9C144.9 173.017 144.966 173.175 144.966 173.375C144.966 173.575 144.9 173.742 144.766 173.875C144.65 173.992 144.5 174.05 144.316 174.05ZM144.566 177.5V191H144.066V177.5H144.566ZM154.627 177.2C156.21 177.2 157.51 177.692 158.527 178.675C159.544 179.658 160.052 181.142 160.052 183.125V191H159.577V183.075C159.577 181.308 159.135 179.967 158.252 179.05C157.369 178.117 156.16 177.65 154.627 177.65C153.027 177.65 151.744 178.175 150.777 179.225C149.81 180.258 149.327 181.792 149.327 183.825V191H148.827V177.5H149.327V181.05C149.644 179.8 150.277 178.85 151.227 178.2C152.177 177.533 153.31 177.2 154.627 177.2Z" fill="black"/>
<path d="M44.129 226.76C44.129 230.48 42.969 233.38 40.649 235.46C38.329 237.5 34.889 238.52 30.329 238.52H21.329V257H18.629V214.88H30.329C34.969 214.88 38.429 215.96 40.709 218.12C42.989 220.24 44.129 223.12 44.129 226.76ZM30.329 236.12C37.729 236.12 41.429 233 41.429 226.76C41.429 223.68 40.549 221.34 38.789 219.74C37.029 218.1 34.209 217.28 30.329 217.28H21.329V236.12H30.329ZM52.7629 217.16C52.1229 217.16 51.5829 216.96 51.1429 216.56C50.7029 216.12 50.4829 215.54 50.4829 214.82C50.4829 214.14 50.7029 213.58 51.1429 213.14C51.5829 212.7 52.1229 212.48 52.7629 212.48C53.4029 212.48 53.9429 212.7 54.3829 213.14C54.8229 213.58 55.0429 214.14 55.0429 214.82C55.0429 215.54 54.8229 216.12 54.3829 216.56C53.9429 216.96 53.4029 217.16 52.7629 217.16ZM54.0829 224.42V257H51.3829V224.42H54.0829ZM81.2005 257L72.0205 242.66L63.0205 257H60.1405L70.6405 240.56L60.2605 224.42H63.3205L72.3805 238.46L81.2605 224.42H84.0805L73.7005 240.62L84.2605 257H81.2005ZM119.629 238.52C119.629 239.96 119.589 241.04 119.509 241.76H91.3691C91.4491 244.68 92.0891 247.14 93.2891 249.14C94.4891 251.14 96.0691 252.64 98.0291 253.64C99.9891 254.64 102.129 255.14 104.449 255.14C107.649 255.14 110.329 254.36 112.489 252.8C114.649 251.2 116.009 249.04 116.569 246.32H119.389C118.749 249.64 117.109 252.34 114.469 254.42C111.829 256.46 108.489 257.48 104.449 257.48C101.409 257.48 98.6891 256.8 96.2891 255.44C93.8891 254.08 92.0091 252.14 90.6491 249.62C89.2891 247.06 88.6091 244.08 88.6091 240.68C88.6091 237.28 89.2691 234.32 90.5891 231.8C91.9491 229.28 93.8291 227.36 96.2291 226.04C98.6291 224.68 101.369 224 104.449 224C107.569 224 110.269 224.68 112.549 226.04C114.869 227.36 116.629 229.14 117.829 231.38C119.029 233.58 119.629 235.96 119.629 238.52ZM116.929 239.54C117.049 236.66 116.529 234.22 115.369 232.22C114.249 230.22 112.709 228.74 110.749 227.78C108.789 226.78 106.669 226.28 104.389 226.28C102.109 226.28 99.9891 226.78 98.0291 227.78C96.1091 228.74 94.5291 230.22 93.2891 232.22C92.0891 234.22 91.4491 236.66 91.3691 239.54H116.929ZM130.489 212.6V257H127.789V212.6H130.489ZM151.247 257.48C147.607 257.48 144.627 256.68 142.307 255.08C140.027 253.48 138.747 251.2 138.467 248.24H141.227C141.427 250.36 142.387 252.04 144.107 253.28C145.867 254.52 148.247 255.14 151.247 255.14C153.727 255.14 155.687 254.52 157.127 253.28C158.607 252 159.347 250.44 159.347 248.6C159.347 247.32 158.947 246.28 158.147 245.48C157.387 244.64 156.427 244 155.267 243.56C154.107 243.12 152.527 242.64 150.527 242.12C148.127 241.48 146.187 240.86 144.707 240.26C143.227 239.62 141.967 238.68 140.927 237.44C139.887 236.2 139.367 234.54 139.367 232.46C139.367 230.94 139.827 229.54 140.747 228.26C141.667 226.94 142.947 225.9 144.587 225.14C146.227 224.38 148.087 224 150.167 224C153.567 224 156.307 224.86 158.387 226.58C160.507 228.26 161.647 230.6 161.807 233.6H159.107C158.987 231.44 158.147 229.68 156.587 228.32C155.027 226.96 152.867 226.28 150.107 226.28C147.787 226.28 145.867 226.88 144.347 228.08C142.827 229.28 142.067 230.74 142.067 232.46C142.067 233.98 142.487 235.22 143.327 236.18C144.207 237.1 145.267 237.82 146.507 238.34C147.787 238.82 149.467 239.34 151.547 239.9C153.827 240.5 155.647 241.1 157.007 241.7C158.407 242.26 159.587 243.1 160.547 244.22C161.507 245.3 161.987 246.76 161.987 248.6C161.987 250.28 161.527 251.8 160.607 253.16C159.687 254.52 158.407 255.58 156.767 256.34C155.127 257.1 153.287 257.48 151.247 257.48Z" fill="black"/>
</svg>
