<svg width="52" height="52" viewBox="0 0 52 52" fill="none" xmlns="http://www.w3.org/2000/svg">
<path d="M26.1571 22.3331C26.1571 22.3331 27.0987 20.9212 30.7061 16.5292C34.3134 12.1372 40.7442 11.5949 46.3914 16.2158C52.0386 20.8367 51.725 26.5686 49.5294 29.7057L42.4706 39.2744V37.0783L47.9608 29.8626C50.3131 26.255 49.5288 21.706 45.1373 17.7841C40.5877 14.0197 35.0976 13.8628 31.8035 17.3138L28.3532 21.3919L42.7844 32.3724H39.6471L26.1571 22.3331Z" fill="#F3D496" stroke="black" stroke-width="0.1"/>
<path d="M29.671 26.725C29.671 26.725 31.0829 27.6666 35.4749 31.274C39.8668 34.8814 40.409 41.3124 35.7882 46.9596C31.1674 52.6069 25.4356 52.2933 22.2985 50.0977L12.73 43.0388H14.9261L22.1417 48.529C25.7492 50.8814 30.2981 50.0971 34.22 45.7055C37.9843 41.1559 38.1412 35.6656 34.6902 32.3715L30.6122 28.9211L19.6319 43.3525V40.2152L29.671 26.725Z" fill="#F3D496" stroke="black" stroke-width="0.1"/>
<path d="M25.8429 30.4899C25.8429 30.4899 24.9013 31.9018 21.2939 36.2938C17.6866 40.6858 11.2558 41.2281 5.60858 36.6072C-0.0385902 31.9863 0.27503 26.2544 2.47062 23.1173L9.52936 13.5486V15.7447L4.03923 22.9604C1.68688 26.568 2.47118 31.117 6.86273 35.0389C11.4123 38.8033 16.9024 38.9602 20.1965 35.5092L23.6468 31.4311L9.21564 20.4506H12.3529L25.8429 30.4899Z" fill="#F3D496" stroke="black" stroke-width="0.1"/>
<path d="M22.0781 25.8433C22.0781 25.8433 20.6662 24.9017 16.2743 21.2943C11.8824 17.6869 11.3401 11.2559 15.9609 5.60866C20.5817 -0.038608 26.3136 0.275018 29.4506 2.47064L39.0191 9.52951H36.8231L29.6075 4.03928C26 1.68689 21.451 2.47121 17.5292 6.86283C13.7648 11.4124 13.608 16.9027 17.0589 20.1968L21.137 23.6472L32.1172 9.21578V12.3531L22.0781 25.8433Z" fill="#F3D496" stroke="black" stroke-width="0.1"/>
</svg>
