<svg width="36" height="36" viewBox="0 0 36 36" fill="none" xmlns="http://www.w3.org/2000/svg">
<path d="M18.1068 15.506C18.1068 15.506 18.7471 14.5459 21.2001 11.5594C23.6531 8.57287 28.0261 8.20414 31.8662 11.3463C35.7062 14.4885 35.493 18.3861 34 20.5193L29.2 27.026V25.5326L32.9333 20.626C34.5329 18.1729 33.9996 15.0796 31.0133 12.4127C27.9197 9.85295 24.1864 9.74629 21.9464 12.0929L19.6002 14.866L29.4134 22.3327H27.2801L18.1068 15.506Z" fill="black" stroke="black" stroke-width="0.1"/>
<path d="M20.4964 18.4927C20.4964 18.4927 21.4566 19.133 24.4431 21.586C27.4296 24.039 27.7983 28.412 24.6562 32.2521C21.514 36.0922 17.6164 35.879 15.4832 34.386L8.97659 29.586H10.4699L15.3765 33.3193C17.8296 34.9189 20.9229 34.3856 23.5897 31.3993C26.1495 28.3056 26.2562 24.5723 23.9095 22.3323L21.1364 19.986L13.6699 29.7993V27.666L20.4964 18.4927Z" fill="black" stroke="black" stroke-width="0.1"/>
<path d="M17.8934 21.0528C17.8934 21.0528 17.2531 22.0129 14.8001 24.9994C12.3471 27.986 7.97415 28.3547 4.13408 25.2125C0.294003 22.0704 0.507265 18.1727 2.00026 16.0395L6.80021 9.53287V11.0262L3.06692 15.9328C1.46732 18.3859 2.00065 21.4793 4.98689 24.1461C8.08057 26.7059 11.8139 26.8126 14.0538 24.4659L16.4001 21.6928L6.58687 14.2262L8.72018 14.2262L17.8934 21.0528Z" fill="black" stroke="black" stroke-width="0.1"/>
<path d="M15.3333 17.893C15.3333 17.893 14.3732 17.2527 11.3866 14.7997C8.40014 12.3467 8.03142 7.97371 11.1736 4.13361C14.3157 0.29351 18.2134 0.506774 20.3465 1.99978L26.8531 6.79976H25.3598L20.4532 3.06644C18.0001 1.46684 14.9068 2.00017 12.24 4.98643C9.68022 8.08013 9.57355 11.8134 11.9202 14.0534L14.6933 16.3997L22.1598 6.58642V8.71974L15.3333 17.893Z" fill="black" stroke="black" stroke-width="0.1"/>
</svg>
