<svg width="99" height="61" viewBox="0 0 99 61" fill="none" xmlns="http://www.w3.org/2000/svg">
<path d="M11.1075 6.2H13.1475V23H11.1075V6.2ZM12.2355 8.12V6.2H15.6675C16.7555 6.2 17.7235 6.408 18.5715 6.824C19.4355 7.224 20.1155 7.8 20.6115 8.552C21.1235 9.304 21.3795 10.2 21.3795 11.24C21.3795 12.264 21.1235 13.16 20.6115 13.928C20.1155 14.68 19.4355 15.264 18.5715 15.68C17.7235 16.08 16.7555 16.28 15.6675 16.28H12.2355V14.36H15.6675C16.7555 14.36 17.6355 14.096 18.3075 13.568C18.9955 13.04 19.3395 12.264 19.3395 11.24C19.3395 10.2 18.9955 9.424 18.3075 8.912C17.6355 8.384 16.7555 8.12 15.6675 8.12H12.2355ZM25.5872 11.96V23H23.6672V11.96H25.5872ZM28.9232 14.072C28.6672 13.88 28.4352 13.744 28.2272 13.664C28.0192 13.568 27.7552 13.52 27.4352 13.52C26.9552 13.52 26.5792 13.64 26.3072 13.88C26.0352 14.12 25.8432 14.448 25.7312 14.864C25.6352 15.28 25.5872 15.752 25.5872 16.28H24.7232C24.7232 15.4 24.8752 14.624 25.1792 13.952C25.4992 13.264 25.9072 12.72 26.4032 12.32C26.8992 11.92 27.4032 11.72 27.9152 11.72C28.3152 11.72 28.6832 11.776 29.0192 11.888C29.3712 11.984 29.6912 12.184 29.9792 12.488L28.9232 14.072ZM35.8142 23.24C34.7902 23.24 33.8782 23 33.0782 22.52C32.2942 22.024 31.6782 21.344 31.2302 20.48C30.7982 19.616 30.5822 18.616 30.5822 17.48C30.5822 16.328 30.8062 15.32 31.2542 14.456C31.7182 13.592 32.3582 12.92 33.1742 12.44C34.0062 11.96 34.9662 11.72 36.0542 11.72C37.1422 11.72 38.0702 11.952 38.8382 12.416C39.6222 12.864 40.2222 13.512 40.6382 14.36C41.0542 15.208 41.2622 16.216 41.2622 17.384C41.2622 17.496 41.2542 17.616 41.2382 17.744C41.2382 17.856 41.2382 17.928 41.2382 17.96H31.8062V16.328H39.7262L38.9582 17.432C39.0062 17.352 39.0542 17.232 39.1022 17.072C39.1502 16.896 39.1742 16.752 39.1742 16.64C39.1742 15.984 39.0382 15.416 38.7662 14.936C38.5102 14.456 38.1502 14.08 37.6862 13.808C37.2222 13.536 36.6782 13.4 36.0542 13.4C35.3182 13.4 34.6862 13.56 34.1582 13.88C33.6462 14.184 33.2462 14.632 32.9582 15.224C32.6862 15.8 32.5422 16.512 32.5262 17.36C32.5262 18.224 32.6622 18.96 32.9342 19.568C33.2062 20.176 33.6062 20.64 34.1342 20.96C34.6622 21.28 35.3022 21.44 36.0542 21.44C36.8062 21.44 37.4702 21.28 38.0462 20.96C38.6222 20.624 39.1102 20.12 39.5102 19.448L41.0702 20.432C40.4942 21.36 39.7662 22.064 38.8862 22.544C38.0222 23.008 36.9982 23.24 35.8142 23.24ZM44.3498 19.616C44.5738 19.952 44.8298 20.264 45.1178 20.552C45.4058 20.84 45.7338 21.072 46.1018 21.248C46.4858 21.408 46.9018 21.488 47.3498 21.488C47.8938 21.488 48.3178 21.368 48.6218 21.128C48.9418 20.872 49.1018 20.528 49.1018 20.096C49.1018 19.712 48.9738 19.392 48.7178 19.136C48.4778 18.864 48.1658 18.64 47.7818 18.464C47.3978 18.272 46.9898 18.096 46.5578 17.936C46.0778 17.744 45.5898 17.52 45.0938 17.264C44.6138 16.992 44.2058 16.648 43.8698 16.232C43.5498 15.8 43.3898 15.264 43.3898 14.624C43.3898 13.968 43.5578 13.424 43.8938 12.992C44.2458 12.56 44.6938 12.24 45.2378 12.032C45.7978 11.824 46.3738 11.72 46.9658 11.72C47.5578 11.72 48.1098 11.816 48.6218 12.008C49.1498 12.2 49.6138 12.456 50.0138 12.776C50.4138 13.096 50.7258 13.464 50.9498 13.88L49.4138 14.864C49.1098 14.448 48.7258 14.104 48.2617 13.832C47.8138 13.56 47.3018 13.424 46.7258 13.424C46.3258 13.424 45.9818 13.512 45.6938 13.688C45.4058 13.864 45.2617 14.136 45.2617 14.504C45.2617 14.792 45.3738 15.048 45.5978 15.272C45.8218 15.496 46.1098 15.696 46.4618 15.872C46.8138 16.048 47.1818 16.216 47.5658 16.376C48.2058 16.632 48.7898 16.912 49.3178 17.216C49.8458 17.504 50.2618 17.856 50.5658 18.272C50.8858 18.688 51.0458 19.224 51.0458 19.88C51.0458 20.84 50.6938 21.64 49.9898 22.28C49.3018 22.92 48.3898 23.24 47.2538 23.24C46.5178 23.24 45.8538 23.112 45.2617 22.856C44.6698 22.584 44.1658 22.24 43.7498 21.824C43.3498 21.408 43.0458 20.984 42.8378 20.552L44.3498 19.616ZM51.8934 11.96H57.4134V13.76H51.8934V11.96ZM53.6934 8.12H55.6134V23H53.6934V8.12ZM59.3391 7.4C59.3391 7.032 59.4671 6.72 59.7231 6.464C59.9951 6.208 60.3071 6.08 60.6591 6.08C61.0271 6.08 61.3391 6.208 61.5951 6.464C61.8511 6.72 61.9791 7.032 61.9791 7.4C61.9791 7.752 61.8511 8.064 61.5951 8.336C61.3391 8.592 61.0271 8.72 60.6591 8.72C60.3071 8.72 59.9951 8.592 59.7231 8.336C59.4671 8.064 59.3391 7.752 59.3391 7.4ZM59.6991 11.96H61.6191V23H59.6991V11.96ZM64.8294 23.72H66.7734C66.7734 24.248 66.9174 24.736 67.2054 25.184C67.4934 25.648 67.9014 26.016 68.4294 26.288C68.9574 26.576 69.5814 26.72 70.3014 26.72C70.8614 26.72 71.4134 26.584 71.9574 26.312C72.5014 26.04 72.9494 25.608 73.3014 25.016C73.6694 24.44 73.8534 23.688 73.8534 22.76V11.96H75.7734V22.76C75.7734 24.024 75.5094 25.08 74.9814 25.928C74.4534 26.792 73.7734 27.44 72.9414 27.872C72.1094 28.304 71.2294 28.52 70.3014 28.52C69.2294 28.52 68.2774 28.32 67.4454 27.92C66.6294 27.52 65.9894 26.952 65.5254 26.216C65.0614 25.496 64.8294 24.664 64.8294 23.72ZM64.6134 17.48C64.6134 16.28 64.8614 15.256 65.3574 14.408C65.8534 13.544 66.5174 12.88 67.3494 12.416C68.1814 11.952 69.0934 11.72 70.0854 11.72C71.0134 11.72 71.8214 11.952 72.5094 12.416C73.1974 12.88 73.7334 13.544 74.1174 14.408C74.5174 15.256 74.7174 16.28 74.7174 17.48C74.7174 18.664 74.5174 19.688 74.1174 20.552C73.7334 21.416 73.1974 22.08 72.5094 22.544C71.8214 23.008 71.0134 23.24 70.0854 23.24C69.0934 23.24 68.1814 23.008 67.3494 22.544C66.5174 22.08 65.8534 21.416 65.3574 20.552C64.8614 19.688 64.6134 18.664 64.6134 17.48ZM66.5574 17.48C66.5574 18.328 66.7254 19.048 67.0614 19.64C67.4134 20.232 67.8774 20.68 68.4534 20.984C69.0294 21.288 69.6534 21.44 70.3254 21.44C70.8854 21.44 71.4374 21.288 71.9814 20.984C72.5254 20.68 72.9734 20.232 73.3254 19.64C73.6774 19.048 73.8534 18.328 73.8534 17.48C73.8534 16.84 73.7494 16.28 73.5414 15.8C73.3334 15.304 73.0534 14.888 72.7014 14.552C72.3654 14.216 71.9894 13.96 71.5734 13.784C71.1574 13.608 70.7414 13.52 70.3254 13.52C69.6534 13.52 69.0294 13.672 68.4534 13.976C67.8774 14.28 67.4134 14.728 67.0614 15.32C66.7254 15.912 66.5574 16.632 66.5574 17.48ZM83.5329 23.24C82.5089 23.24 81.5969 23 80.7969 22.52C80.0129 22.024 79.3969 21.344 78.9489 20.48C78.5169 19.616 78.3009 18.616 78.3009 17.48C78.3009 16.328 78.5249 15.32 78.9729 14.456C79.4369 13.592 80.0769 12.92 80.8929 12.44C81.7249 11.96 82.6849 11.72 83.7729 11.72C84.8609 11.72 85.7889 11.952 86.5569 12.416C87.3409 12.864 87.9409 13.512 88.3569 14.36C88.7729 15.208 88.9809 16.216 88.9809 17.384C88.9809 17.496 88.9729 17.616 88.9569 17.744C88.9569 17.856 88.9569 17.928 88.9569 17.96H79.5249V16.328H87.4449L86.6769 17.432C86.7249 17.352 86.7729 17.232 86.8209 17.072C86.8689 16.896 86.8929 16.752 86.8929 16.64C86.8929 15.984 86.7569 15.416 86.4849 14.936C86.2289 14.456 85.8689 14.08 85.4049 13.808C84.9409 13.536 84.3969 13.4 83.7729 13.4C83.0369 13.4 82.4049 13.56 81.8769 13.88C81.3649 14.184 80.9649 14.632 80.6769 15.224C80.4049 15.8 80.2609 16.512 80.2449 17.36C80.2449 18.224 80.3809 18.96 80.6529 19.568C80.9249 20.176 81.3249 20.64 81.8529 20.96C82.3809 21.28 83.0209 21.44 83.7729 21.44C84.5249 21.44 85.1889 21.28 85.7649 20.96C86.3409 20.624 86.8289 20.12 87.2289 19.448L88.7889 20.432C88.2129 21.36 87.4849 22.064 86.6049 22.544C85.7409 23.008 84.7169 23.24 83.5329 23.24Z" fill="#AD925F"/>
<path d="M24.0841 38.2H26.1241V55H24.0841V38.2ZM25.2121 40.12V38.2H28.6441C29.7321 38.2 30.7001 38.408 31.5481 38.824C32.4121 39.224 33.0921 39.8 33.5881 40.552C34.1001 41.304 34.3561 42.2 34.3561 43.24C34.3561 44.264 34.1001 45.16 33.5881 45.928C33.0921 46.68 32.4121 47.264 31.5481 47.68C30.7001 48.08 29.7321 48.28 28.6441 48.28H25.2121V46.36H28.6441C29.7321 46.36 30.6121 46.096 31.2841 45.568C31.9721 45.04 32.3161 44.264 32.3161 43.24C32.3161 42.2 31.9721 41.424 31.2841 40.912C30.6121 40.384 29.7321 40.12 28.6441 40.12H25.2121ZM37.1125 39.4C37.1125 39.032 37.2405 38.72 37.4965 38.464C37.7685 38.208 38.0805 38.08 38.4325 38.08C38.8005 38.08 39.1125 38.208 39.3685 38.464C39.6245 38.72 39.7525 39.032 39.7525 39.4C39.7525 39.752 39.6245 40.064 39.3685 40.336C39.1125 40.592 38.8005 40.72 38.4325 40.72C38.0805 40.72 37.7685 40.592 37.4965 40.336C37.2405 40.064 37.1125 39.752 37.1125 39.4ZM37.4725 43.96H39.3925V55H37.4725V43.96ZM49.2269 43.96H51.3869L47.6189 49.312L51.6269 55H49.4669L46.5869 50.824L43.7069 55H41.5469L45.5549 49.312L41.7869 43.96H43.9469L46.5869 47.8L49.2269 43.96ZM57.3454 55.24C56.3214 55.24 55.4094 55 54.6094 54.52C53.8254 54.024 53.2094 53.344 52.7614 52.48C52.3294 51.616 52.1134 50.616 52.1134 49.48C52.1134 48.328 52.3374 47.32 52.7854 46.456C53.2494 45.592 53.8894 44.92 54.7054 44.44C55.5374 43.96 56.4974 43.72 57.5854 43.72C58.6734 43.72 59.6014 43.952 60.3694 44.416C61.1534 44.864 61.7534 45.512 62.1694 46.36C62.5854 47.208 62.7934 48.216 62.7934 49.384C62.7934 49.496 62.7854 49.616 62.7694 49.744C62.7694 49.856 62.7694 49.928 62.7694 49.96H53.3374V48.328H61.2574L60.4894 49.432C60.5374 49.352 60.5854 49.232 60.6334 49.072C60.6814 48.896 60.7054 48.752 60.7054 48.64C60.7054 47.984 60.5694 47.416 60.2974 46.936C60.0414 46.456 59.6814 46.08 59.2174 45.808C58.7534 45.536 58.2094 45.4 57.5854 45.4C56.8494 45.4 56.2174 45.56 55.6894 45.88C55.1774 46.184 54.7774 46.632 54.4894 47.224C54.2174 47.8 54.0734 48.512 54.0574 49.36C54.0574 50.224 54.1934 50.96 54.4654 51.568C54.7374 52.176 55.1374 52.64 55.6654 52.96C56.1934 53.28 56.8334 53.44 57.5854 53.44C58.3374 53.44 59.0014 53.28 59.5774 52.96C60.1534 52.624 60.6414 52.12 61.0414 51.448L62.6014 52.432C62.0254 53.36 61.2974 54.064 60.4174 54.544C59.5534 55.008 58.5294 55.24 57.3454 55.24ZM65.425 36.28H67.345V55H65.425V36.28ZM71.4123 51.616C71.6363 51.952 71.8923 52.264 72.1803 52.552C72.4683 52.84 72.7963 53.072 73.1643 53.248C73.5483 53.408 73.9643 53.488 74.4123 53.488C74.9563 53.488 75.3803 53.368 75.6843 53.128C76.0043 52.872 76.1643 52.528 76.1643 52.096C76.1643 51.712 76.0363 51.392 75.7803 51.136C75.5403 50.864 75.2283 50.64 74.8443 50.464C74.4603 50.272 74.0523 50.096 73.6203 49.936C73.1403 49.744 72.6523 49.52 72.1562 49.264C71.6763 48.992 71.2683 48.648 70.9323 48.232C70.6123 47.8 70.4523 47.264 70.4523 46.624C70.4523 45.968 70.6203 45.424 70.9563 44.992C71.3083 44.56 71.7563 44.24 72.3003 44.032C72.8603 43.824 73.4363 43.72 74.0283 43.72C74.6203 43.72 75.1723 43.816 75.6843 44.008C76.2123 44.2 76.6763 44.456 77.0763 44.776C77.4763 45.096 77.7883 45.464 78.0123 45.88L76.4763 46.864C76.1723 46.448 75.7883 46.104 75.3242 45.832C74.8763 45.56 74.3643 45.424 73.7883 45.424C73.3883 45.424 73.0443 45.512 72.7563 45.688C72.4683 45.864 72.3242 46.136 72.3242 46.504C72.3242 46.792 72.4363 47.048 72.6603 47.272C72.8843 47.496 73.1723 47.696 73.5243 47.872C73.8763 48.048 74.2443 48.216 74.6283 48.376C75.2683 48.632 75.8523 48.912 76.3803 49.216C76.9083 49.504 77.3243 49.856 77.6283 50.272C77.9483 50.688 78.1083 51.224 78.1083 51.88C78.1083 52.84 77.7563 53.64 77.0523 54.28C76.3643 54.92 75.4523 55.24 74.3163 55.24C73.5803 55.24 72.9163 55.112 72.3242 54.856C71.7323 54.584 71.2283 54.24 70.8123 53.824C70.4123 53.408 70.1083 52.984 69.9003 52.552L71.4123 51.616Z" fill="#AD925F"/>
</svg>
