<svg width="82" height="82" viewBox="0 0 82 82" fill="none" xmlns="http://www.w3.org/2000/svg">
<path d="M41.2511 35.1328C41.2511 35.1328 42.7577 32.8737 48.5295 25.8466C54.3013 18.8194 64.5907 17.9519 73.6262 25.3452C82.6618 32.7385 82.16 41.9095 78.647 46.9288L67.3529 62.2385V58.7248L76.1372 47.1798C79.901 41.4078 78.6461 34.1294 71.6196 27.8544C64.3403 21.8314 55.556 21.5804 50.2855 27.102L44.7648 33.6269L67.8549 51.1955H62.8353L41.2511 35.1328Z" fill="#AD925F" stroke="black" stroke-width="0.1"/>
<path d="M46.8741 42.1606C46.8741 42.1606 49.1332 43.6672 56.1603 49.439C63.1874 55.2108 64.055 65.5002 56.6617 74.5358C49.2684 83.5713 40.0974 83.0695 35.0781 79.5565L19.7684 68.2625H23.2821L34.8271 77.0467C40.5991 80.8105 47.8775 79.5556 54.1525 72.5291C60.1755 65.2498 60.4265 56.4656 54.9049 51.195L48.38 45.6744L30.8115 68.7644V63.7449L46.8741 42.1606Z" fill="#AD925F" stroke="black" stroke-width="0.1"/>
<path d="M40.7489 48.184C40.7489 48.184 39.2423 50.4431 33.4705 57.4703C27.6987 64.4974 17.4093 65.365 8.37377 57.9717C-0.661754 50.5783 -0.159958 41.4073 3.353 36.388L14.6471 21.0783V24.592L5.86279 36.137C2.09901 41.9091 3.35391 49.1874 10.3804 55.4624C17.6597 61.4854 26.444 61.7364 31.7145 56.2149L37.2352 49.6899L14.1451 32.1214H19.1647L40.7489 48.184Z" fill="#AD925F" stroke="black" stroke-width="0.1"/>
<path d="M34.7254 40.7492C34.7254 40.7492 32.4663 39.2426 25.4392 33.4708C18.412 27.699 17.5444 17.4096 24.9378 8.37402C32.3311 -0.661512 41.5021 -0.159715 46.5214 3.35325L61.8311 14.6473H58.3174L46.7724 5.86304C41.0004 2.09926 33.722 3.35415 27.447 10.3807C21.424 17.66 21.173 26.4442 26.6946 31.7148L33.2195 37.2354L50.788 14.1454V19.1649L34.7254 40.7492Z" fill="#AD925F" stroke="black" stroke-width="0.1"/>
</svg>
