<svg width="324" height="301" viewBox="0 0 324 301" fill="none" xmlns="http://www.w3.org/2000/svg">
<path d="M144.627 154.17C144.627 154.17 151.388 144.032 177.289 112.498C203.19 80.9635 249.363 77.0702 289.91 110.248C330.457 143.425 328.205 184.58 312.441 207.104L261.759 275.806V260.039L301.178 208.23C318.068 182.328 312.437 149.667 280.905 121.508C248.239 94.4797 208.82 93.3534 185.169 118.131L160.395 147.412L264.011 226.251H241.486L144.627 154.17Z" fill="#1E1E1E" fill-opacity="0.3" stroke="black" stroke-width="0.1"/>
<path d="M169.86 185.708C169.86 185.708 179.997 192.468 211.532 218.369C243.066 244.27 246.959 290.444 213.782 330.991C180.604 371.537 139.449 369.286 116.925 353.521L48.2228 302.839H63.9905L115.799 342.259C141.701 359.149 174.362 353.517 202.521 321.986C229.55 289.32 230.676 249.901 205.898 226.249L176.617 201.475L97.7785 305.092V282.566L169.86 185.708Z" fill="#1E1E1E" fill-opacity="0.3" stroke="black" stroke-width="0.1"/>
<path d="M142.373 212.737C142.373 212.737 135.612 222.875 109.711 254.409C83.8103 285.943 37.6367 289.836 -2.91021 256.659C-43.4571 223.481 -41.2053 182.326 -25.4409 159.802L25.2411 91.1002V106.868L-14.1782 158.676C-31.0682 184.578 -25.4368 217.24 6.0946 245.399C38.7604 272.427 78.1797 273.553 101.831 248.775L126.605 219.495L22.9886 140.656H45.514L142.373 212.737Z" fill="#1E1E1E" fill-opacity="0.3" stroke="black" stroke-width="0.1"/>
<path d="M115.343 179.373C115.343 179.373 105.205 172.612 73.6707 146.711C42.1365 120.81 38.2432 74.6366 71.4207 34.0898C104.598 -6.45711 145.753 -4.20531 168.277 11.5591L236.979 62.2411H221.212L169.403 22.8218C143.501 5.93181 110.84 11.5631 82.6808 43.0946C55.6526 75.7603 54.5264 115.18 79.3043 138.831L108.585 163.605L187.424 59.9886V82.5139L115.343 179.373Z" fill="#1E1E1E" fill-opacity="0.3" stroke="black" stroke-width="0.1"/>
</svg>
